<svg width="26" height="26" viewBox="0 0 26 26" fill="none" xmlns="http://www.w3.org/2000/svg">
<path d="M19.9712 19.437C19.9712 21.4983 18.7782 22.6324 16.6135 22.6324H9.08794C6.92331 22.6324 5.73025 21.4973 5.73025 19.437C5.73025 17.116 7.10156 14.4055 10.9677 14.4055H14.7327C18.5999 14.4045 19.9712 17.116 19.9712 19.437ZM12.8592 12.5004C14.9078 12.5004 16.5735 10.9047 16.5735 8.94381C16.5735 6.98191 14.9068 5.38726 12.8592 5.38726C10.8117 5.38726 9.14601 6.98293 9.14601 8.94381C9.14601 10.9047 10.8106 12.5004 12.8592 12.5004ZM20.0135 9.88121H18.3151C18.1674 9.88121 18.0408 9.98263 18.0092 10.1145C17.7771 11.0782 17.2496 11.9404 16.5217 12.5998C16.3424 12.7621 16.4479 13.0461 16.6906 13.107C18.5577 13.5331 19.8552 14.5881 20.6253 15.9271C20.678 16.0387 20.7835 16.1097 20.9207 16.1097H21.3636C23.0198 16.1097 23.9271 15.2373 23.9271 13.6548C23.9271 11.9202 22.9039 9.88121 20.0135 9.88121ZM18.6632 3.35841C17.6104 3.35841 16.6915 3.91326 16.2095 4.73393C16.1704 4.80088 16.1725 4.87496 16.1873 4.93887C16.2031 5.00582 16.2338 5.0414 16.2992 5.09415C17.332 5.93105 18.0208 7.14326 18.1337 8.51374C18.14 8.59084 18.1674 8.63851 18.216 8.68822C18.2645 8.73793 18.3372 8.76827 18.4332 8.77639C18.5081 8.78247 18.5851 8.78654 18.6632 8.78654C20.2139 8.78654 21.4798 7.5693 21.4798 6.06796C21.4798 4.57574 20.2139 3.35841 18.6632 3.35841ZM1.77441 13.6548C1.77441 15.2373 2.68167 16.1097 4.33785 16.1097H4.78082C4.91796 16.1097 5.02348 16.0387 5.07622 15.9271C5.84629 14.5881 7.14378 13.5331 9.01093 13.107C9.25356 13.0461 9.35908 12.7621 9.17975 12.5998C8.45188 11.9404 7.9244 11.0782 7.69232 10.1145C7.66068 9.98263 7.53405 9.88121 7.38636 9.88121H5.68801C2.79761 9.88121 1.77441 11.9202 1.77441 13.6548ZM4.2217 6.06697C4.2217 7.56831 5.48761 8.78555 7.0383 8.78555C7.11636 8.78555 7.19338 8.78148 7.26828 8.7754C7.36533 8.76728 7.43699 8.73694 7.48552 8.68723C7.53404 8.63752 7.56147 8.58985 7.5678 8.51275C7.68067 7.14227 8.36953 5.92994 9.40227 5.09304C9.46662 5.04029 9.49835 5.00483 9.51417 4.93788C9.52894 4.87397 9.53105 4.8009 9.49202 4.73294C9.00888 3.91227 8.09108 3.35742 7.0383 3.35742C5.48761 3.35844 4.2217 4.57576 4.2217 6.06697Z" fill="white"/>
</svg>
