<svg width="26" height="26" viewBox="0 0 26 26" fill="none" xmlns="http://www.w3.org/2000/svg">
<path d="M17.2083 17.0417C17.0142 17.2232 16.9255 17.4849 16.9709 17.7406L17.5796 21.1359C17.703 21.8247 16.9498 22.3501 16.3053 22.0255L13.1154 20.4196C12.8759 20.2989 12.5911 20.2989 12.3516 20.4196L9.16365 22.0235C8.51701 22.3491 7.7628 21.8226 7.88728 21.1328L8.49495 17.7396C8.54136 17.4829 8.45172 17.2222 8.25762 17.0406L5.59825 14.5594C5.10984 14.1039 5.37874 13.3076 6.05281 13.2142L9.73127 12.7029C9.99922 12.6654 10.2301 12.5041 10.3504 12.2718L11.9433 9.18088C12.2661 8.55396 13.1987 8.55396 13.5225 9.18088L15.1154 12.2718C15.2357 12.5041 15.4666 12.6654 15.7346 12.7029L19.413 13.2142C20.0871 13.3086 20.3572 14.1039 19.8677 14.5594L17.2083 17.0417ZM12.7324 6.65497C13.1691 6.65497 13.5236 6.31413 13.5236 5.89416V3.86531C13.5236 3.44534 13.1691 3.10449 12.7324 3.10449C12.2957 3.10449 11.9412 3.44534 11.9412 3.86531V5.89416C11.9412 6.31413 12.2957 6.65497 12.7324 6.65497ZM19.0617 10.7127C19.4985 10.7127 19.8529 10.3718 19.8529 9.95185V3.86531C19.8529 3.44534 19.4985 3.10449 19.0617 3.10449C18.625 3.10449 18.2706 3.44534 18.2706 3.86531V9.95185C18.2706 10.3718 18.625 10.7127 19.0617 10.7127ZM6.40307 10.7127C6.83979 10.7127 7.19424 10.3718 7.19424 9.95185V3.86531C7.19424 3.44534 6.83979 3.10449 6.40307 3.10449C5.96635 3.10449 5.6119 3.44534 5.6119 3.86531V9.95185C5.6119 10.3718 5.96635 10.7127 6.40307 10.7127Z" fill="white"/>
</svg>
