<svg width="18" height="19" viewBox="0 0 18 19" fill="none" xmlns="http://www.w3.org/2000/svg">
<path d="M12.5625 7.29358V5.75C12.5625 3.785 10.965 2.1875 9 2.1875C7.035 2.1875 5.4375 3.785 5.4375 5.75V7.29358C4.314 7.46833 3.75 8.20175 3.75 9.5V14C3.75 15.5 4.5 16.25 6 16.25H12C13.5 16.25 14.25 15.5 14.25 14V9.5C14.25 8.20175 13.686 7.46833 12.5625 7.29358ZM9.5625 11.7403V13.25C9.5625 13.5605 9.3105 13.8125 9 13.8125C8.6895 13.8125 8.4375 13.5605 8.4375 13.25V11.7214C8.2215 11.5497 8.07367 11.2963 8.07367 11C8.07367 10.4825 8.49001 10.0625 9.00751 10.0625H9.01501C9.53251 10.0625 9.95251 10.4825 9.95251 11C9.95251 11.309 9.79275 11.57 9.5625 11.7403ZM11.4375 7.25H6.5625V5.75C6.5625 4.4075 7.6575 3.3125 9 3.3125C10.3425 3.3125 11.4375 4.4075 11.4375 5.75V7.25Z" fill="black" fill-opacity="0.32"/>
</svg>
