<svg width="26" height="26" viewBox="0 0 26 26" fill="none" xmlns="http://www.w3.org/2000/svg">
<path d="M17.3333 7.56413C17.3333 8.6692 16.8943 9.729 16.1129 10.5104C15.3315 11.2918 14.2717 11.7308 13.1667 11.7308C12.0616 11.7308 11.0018 11.2918 10.2204 10.5104C9.43899 9.729 9 8.6692 9 7.56413C9 6.45906 9.43899 5.39925 10.2204 4.61785C11.0018 3.83645 12.0616 3.39746 13.1667 3.39746C14.2717 3.39746 15.3315 3.83645 16.1129 4.61785C16.8943 5.39925 17.3333 6.45906 17.3333 7.56413ZM13.1667 14.8558C11.2328 14.8558 9.37813 15.624 8.01068 16.9915C6.64323 18.3589 5.875 20.2136 5.875 22.1475H20.4583C20.4583 20.2136 19.6901 18.3589 18.3227 16.9915C16.9552 15.624 15.1005 14.8558 13.1667 14.8558Z" stroke="black" stroke-opacity="0.6" stroke-width="3.33333" stroke-linecap="round" stroke-linejoin="round"/>
</svg>
